PathFileType	4	(X/Y/Z)	C:/Users/beibeiliu/ov580/test_trc/User3\sequence.29_training_dense_left.trc
DataRate	CameraRate	NumFrames	NumMarkers	Units	OrigDataRate	OrigDataStartFrame	OrigNumFrames
120	120	19	19	mm	120	29	86
Frame#	Time	ThumbCMC			ThumbMCP			ThumbIP			ThumbTip			IndexMCP			IndexPIP			IndexTip			MiddleMCP			MiddlePIP			MiddleTip			RingMCP			RingPIP			RingTip			PinkyMCP			PinkyPIP			PinkyTip			BackHand1			BackHand2			BackHand3	
		X0	Y0	Z0	X1	Y1	Z1	X2	Y2	Z2	X3	Y3	Z3	X4	Y4	Z4	X5	Y5	Z5	X6	Y6	Z6	X7	Y7	Z7	X8	Y8	Z8	X9	Y9	Z9	X10	Y10	Z10	X11	Y11	Z11	X12	Y12	Z12	X13	Y13	Z13	X14	Y14	Z14	X15	Y15	Z15	X16	Y16	Z16	X17	Y17	Z17	X18	Y18	Z18	
28	0.233333	-225.381	-72.91	30.0521	-238.299	-73.1826	10.3626	-251.107	-75.1796	-18.1563	-260.549	-73.2794	-36.8499	-194.648	-82.6457	-44.9854	-189.803	-78.2083	-69.4917	-181.001	-70.1595	-97.7676	-175.442	-86.3801	-44.7503	-167.289	-77.4626	-75.5982	-158.208	-61.0684	-98.0669	-152.964	-81.4579	-36.4052	-145.981	-73.7757	-60.1969	-136.93	-61.735	-79.5386	-139.538	-80.2612	-15.4953	-128.143	-72.9553	-36.1471	-119.039	-65.5433	-56.188	-164.953	-99.5217	14.5965	-173.26	-99.8817	48.6591	-200.352	-96.0784	24.255	
29	0.241667	-220.583	-68.2235	32.8834	-233.308	-69.5487	7.36327	-250.978	-69.8145	-17.6557	-258.381	-65.6083	-37.8853	-188.747	-78.9192	-42.6728	-186.202	-72.9168	-70.9982	-180.095	-60.6237	-97.3881	-164.775	-84.2913	-45.9694	-158.77	-73.0499	-73.4044	-150.282	-49.3865	-99.6325	-148.111	-79.2426	-34.4646	-138.051	-70.1128	-57.6121	-125.636	-54.6323	-76.264	-135.106	-75.8534	-15.0819	-121.914	-68.9032	-36.046	-113.523	-57.1362	-54.6434	-166.122	-95.1227	17.9442	-169.625	-95.711	45.5886	-197.792	-92.4922	23.9646	
30	0.25	-211.97	-66.8821	28.2181	-232.215	-66.8911	4.60395	-240.06	-62.1295	-19.1025	-247.852	-58.3453	-43.0132	-186.928	-76.7096	-48.8876	-179.219	-70.8408	-70.5193	-170.208	-55.2571	-97.764	-159.729	-83.3734	-43.682	-150.675	-72.9348	-73.6588	-141.12	-50.2344	-95.1883	-140.981	-81.332	-35.7886	-127.538	-70.4436	-57.9053	-121.977	-50.1145	-77.1568	-125.732	-76.7397	-15.8241	-113.584	-69.2948	-32.3176	-102.452	-53.6878	-54.5094	-156.121	-97.348	15.1843	-163.217	-96.1427	46.4422	-190.797	-91.7745	22.1462	
31	0.258333	-208.804	-66.2858	29.1383	-228.796	-63.1248	4.01238	-233.996	-59.0741	-20.8578	-243.022	-53.0532	-43.5331	-178.881	-78.6717	-48.9136	-176.994	-70.6269	-73.5221	-168.291	-54.6856	-97.1726	-155.797	-85.329	-49.1623	-146.802	-73.7827	-75.3562	-136.933	-49.8259	-98.6669	-134.301	-83.3908	-32.627	-124.909	-74.2629	-55.6165	-114.226	-50.5193	-74.6333	-119.163	-79.772	-11.9473	-104.08	-71.0604	-33.2946	-96.6159	-56.1647	-48.3417	-153.676	-98.6559	15.712	-161.452	-96.1419	46.3243	-190.164	-89.9749	19.5624	
32	0.266667	-204.039	-65.7154	25.9295	-220.056	-60.6727	2.58906	-228.267	-54.0195	-25.5001	-228.381	-48.1177	-47.2598	-177.037	-80.1825	-45.4874	-168.44	-72.5671	-74.6121	-158.263	-57.1564	-96.3052	-149.063	-88.1546	-45.1143	-139.357	-78.8262	-73.6792	-129.341	-52.1805	-95.4044	-131.865	-86.4165	-33.7825	-117.545	-76.5001	-54.9482	-107.495	-51.3574	-70.1051	-112.196	-82.3501	-12.8108	-102.366	-72.7351	-33.9428	-92.0696	-52.1619	-48.9362	-148.422	-101.035	15.1005	-157.77	-97.6882	46.1618	-180.215	-91.6399	21.8425	
33	0.275	-204.072	-67.0514	25.901	-216.893	-60.6005	-0.563993	-221.044	-53.4759	-31.4229	-221.058	-46.268	-48.087	-168.222	-83.4522	-45.4958	-161.289	-76.7	-73.9608	-152.395	-58.9513	-95.4257	-146.117	-90.1659	-47.8681	-135.123	-80.5092	-72.8186	-124.631	-54.9372	-92.396	-127.331	-88.1462	-35.1725	-113.51	-77.2941	-54.2233	-102.718	-49.3554	-67.9589	-107.128	-85.1599	-15.3087	-98.2838	-73.1534	-32.9361	-85.8798	-54.8484	-45.2011	-148.762	-102.697	14.5819	-154.305	-101.496	42.5771	-178.641	-95.8865	20.1051	
34	0.283333	-201.457	-66.5459	26.3845	-216.441	-57.1342	0.907507	-218.582	-50.1809	-26.7786	-215.205	-43.0909	-49.7368	-169.269	-83.0493	-44.4349	-158.277	-74.1889	-75.598	-149.935	-60.6469	-92.4086	-144.883	-90.6147	-47.9594	-131.64	-78.0454	-73.2025	-120.603	-48.5219	-91.0316	-124.451	-89.492	-31.4762	-113.111	-75.6102	-56.4223	-101.646	-47.4258	-66.0473	-109.137	-84.8079	-8.78032	-95.7728	-73.335	-32.132	-88.2954	-53.0998	-45.6708	-148.118	-102.174	16.0698	-154.228	-100.815	47.8876	-176.999	-95.4481	21.1032	
35	0.291667	-203.781	-60.3357	28.3145	-213.197	-51.6459	-1.69395	-213.591	-43.0504	-26.3782	-206.953	-33.8121	-49.0948	-171.522	-80.6618	-45.0157	-163.264	-70.4849	-75.7297	-152.153	-57.1436	-91.1958	-143.162	-88.8687	-45.7101	-135.158	-75.0052	-72.2857	-123.603	-47.893	-90.4348	-125.969	-88.1941	-30.232	-113.283	-74.9843	-55.5008	-104.314	-50.0697	-65.3264	-110.073	-85.7312	-12.7828	-98.0542	-74.2185	-32.5261	-88.2195	-55.948	-42.7179	-147.384	-101.412	16.3617	-154.707	-100.376	47.6295	-179.708	-90.4095	23.9068	
36	0.3	-200.987	-45.7403	28.0287	-202.782	-34.1299	-1.70946	-198.799	-25.1306	-26.9331	-190.783	-16.4656	-51.7938	-172.981	-74.4751	-43.4547	-165.9	-70.4256	-69.4636	-151.812	-59.0674	-91.0674	-155.609	-86.0796	-44.2533	-147.077	-77.0329	-71.5684	-126.406	-57.6105	-91.9332	-137.524	-90.1279	-29.6836	-125.855	-83.3358	-54.5064	-108.978	-58.3204	-72.8457	-123.477	-89.6718	-15.7942	-113.092	-83.1717	-35.8863	-97.012	-67.6525	-51.5278	-155.074	-98.1098	20.2821	-163.466	-96.6805	46.386	-185.66	-81.8286	24.142	
37	0.308333	-177.052	-20.9861	27.1046	-167.139	-9.7587	-2.41629	-156.087	-5.14782	-25.4489	-144.52	-3.56074	-48.9696	-178.848	-53.4069	-47.7858	-171.526	-52.3716	-73.0417	-158.227	-49.4498	-95.2329	-173.057	-71.9524	-45.3299	-162.982	-68.4387	-74.4682	-142.22	-64.2748	-98.9643	-161.956	-86.8417	-34.7973	-151.14	-82.3583	-63.8763	-126.564	-79.9859	-83.578	-151.948	-96.0686	-16.4238	-142.951	-94.0786	-41.2059	-132.393	-86.8585	-60.1273	-180.676	-82.4398	17.8514	-182.407	-85.3298	45.5298	-194.956	-52.8571	21.1691	
38	0.316667	-141.802	-19.487	29.2511	-119.576	-18.047	2.45639	-108.337	-21.2754	-24.5963	-101.632	-29.9141	-42.8668	-166.265	-21.4168	-43.2603	-159.085	-22.1602	-73.2692	-153.778	-32.3185	-96.0377	-176.293	-33.7484	-48.2367	-169.247	-38.9519	-77.9051	-155.267	-47.8906	-107.91	-181.354	-53.2756	-42.1303	-174.75	-57.4935	-67.9412	-161.077	-67.1957	-90.6528	-183.46	-70.666	-26.9399	-179.031	-74.0514	-49.2518	-167.319	-76.789	-74.0824	-193.892	-51.7043	13.4427	-194.071	-48.0077	40.537	-178.409	-19.1145	23.3469	
39	0.325	-122.344	-32.7157	27.2277	-105.958	-42.8642	2.49754	-93.1393	-49.6301	-28.4252	-88.352	-57.5734	-51.9653	-141.351	-8.18993	-47.8476	-136.438	-8.8785	-69.8787	-133.858	-15.8916	-98.0989	-161.661	-10.8812	-52.3497	-154.938	-14.2626	-80.6512	-150.136	-22.7297	-106.849	-173.438	-22.8826	-43.6792	-171.875	-27.4159	-71.8357	-168.593	-38.9043	-98.7957	-189.037	-36.9319	-33.8946	-186.528	-39.4645	-56.2879	-180.136	-46.8883	-80.0035	-181.187	-19.1477	11.7186	-183.906	-26.1574	38.9224	-149.996	-10.2335	26.5177	
40	0.333333	-107.239	-39.0013	22.5756	-96.892	-50.1697	-4.96258	-86.6064	-57.9054	-32.5178	-83.1187	-65.8978	-55.0373	-124.286	1.07605	-47.1723	-117.599	-0.724349	-71.6028	-119.077	-4.20254	-95.7508	-143.178	3.01915	-51.1055	-137.909	1.72134	-78.1495	-129.586	-5.34579	-108.767	-162.152	-5.35547	-45.6355	-158.488	-5.60892	-71.6189	-154.774	-14.8225	-100.696	-177.675	-15.7876	-33.0069	-179.593	-16.0452	-57.6295	-173.914	-17.2437	-81.1261	-170.055	-6.25711	7.87173	-170.429	-15.8311	38.0748	-137.086	-7.39971	26.0457	
41	0.341667	-100.977	-37.9413	20.9192	-93.1079	-51.1658	-5.37726	-81.4368	-58.4032	-38.6978	-81.9912	-62.689	-60.3396	-110.474	5.5345	-43.915	-105.627	5.32548	-68.5824	-106.652	1.57252	-93.9655	-131.984	9.17787	-52.9615	-125.278	7.43035	-79.1428	-123.024	1.75394	-109.448	-152.738	2.08895	-46.9273	-145.385	1.08995	-72.1503	-142.198	-4.88286	-99.2531	-171.745	-7.10499	-38.9367	-168.599	-7.33799	-61.4261	-167.09	-7.50663	-86.847	-158.647	-1.13486	8.17684	-159.92	-12.5716	35.7425	-126.266	-6.45214	26.7043	
42	0.35	-100.386	-36.9678	16.5368	-86.2717	-50.9606	-8.96969	-84.0768	-56.4618	-40.689	-82.1059	-63.3227	-60.2888	-103.374	4.735	-45.5681	-99.1285	0.0741028	-73.9348	-96.7224	-4.14312	-99.5732	-127.175	5.26322	-56.9149	-123.114	1.67214	-82.1134	-113.735	-4.03171	-112.879	-148.354	-1.95815	-49.8454	-146.126	-4.70485	-77.0952	-139.76	-9.25847	-101.076	-167.791	-11.0896	-42.4572	-164.233	-12.8006	-64.3163	-162.248	-13.259	-86.1653	-154.997	-1.66651	8.35817	-158.746	-13.3455	34.598	-124.619	-5.81541	24.7565	
43	0.358333	-98.7484	-34.7405	17.4078	-90.3983	-47.3043	-11.4258	-82.9226	-55.9212	-37.8466	-81.2188	-63.049	-64.3645	-108.582	2.18005	-50.5405	-97.23	-2.27263	-71.702	-95.721	-8.09066	-95.498	-131.236	1.4051	-55.3641	-121.129	-3.42277	-84.5037	-117.404	-11.0548	-110.791	-147.939	-7.04227	-54.6875	-146.424	-10.7934	-75.0233	-145.129	-17.7879	-102.262	-165.519	-17.598	-46.0133	-166.446	-23.94	-64.369	-166.157	-26.2648	-83.63	-154.912	-1.35235	3.88007	-162.561	-13.72	33.282	-124.179	-4.39932	23.9284	
44	0.366667	-104.825	-33.5271	17.852	-90.4499	-47.5096	-13.1668	-84.1796	-53.8145	-45.2711	-87.739	-59.6648	-64.8862	-109.237	-0.52502	-50.3642	-102.666	-7.01978	-73.1137	-99.8578	-15.7703	-99.1232	-131.843	-1.83956	-55.7407	-127.999	-10.0759	-81.3184	-120.197	-18	-111.4	-152.673	-12.4006	-56.7443	-150.294	-17.402	-75.3478	-148.89	-26.7743	-102.096	-169.922	-23.2559	-42.6876	-169.311	-33.5847	-66.162	-166.187	-37.4469	-87.0656	-158.696	-4.12971	4.16836	-159.289	-13.1095	31.9862	-125.884	-0.953472	19.3929	
45	0.375	-104.49	-32.3151	13.8095	-94.4499	-45.2924	-17.9175	-91.7985	-52.8571	-43.4898	-89.7181	-59.2393	-63.7288	-111.287	-0.362318	-53.3427	-103.914	-9.98856	-77.4218	-101.812	-19.0641	-100.032	-133.319	-3.3505	-60.851	-130.883	-14.3093	-86.9718	-123.452	-21.8573	-111.302	-150.953	-10.3984	-55.3356	-150.309	-19.0081	-75.7841	-148.734	-30.1004	-104.328	-171.365	-23.459	-48.5139	-171.579	-33.6227	-65.2321	-169.052	-38.0409	-84.1972	-163.843	-3.4433	3.1637	-161.308	-10.947	33.3256	-128.72	-1.65481	19.5704	
46	0.383333	-103.727	-29.615	8.68399	-94.0017	-45.1945	-19.7579	-93.0267	-51.3348	-47.5938	-96.8512	-56.66	-71.828	-113.453	1.87919	-55.2411	-109.694	-7.08241	-78.6849	-110.094	-20.2116	-102.709	-133.601	-0.000833853	-63.0248	-130.076	-11.4201	-90.1031	-127.116	-23.0779	-113.843	-158.739	-9.01314	-56.6298	-152.208	-16.5698	-79.22	-154.412	-29.0282	-102.695	-173.721	-19.6416	-50.6293	-171.914	-27.0583	-64.1563	-171.124	-37.162	-84.8599	-160.175	1.32172	-0.00961987	-162.837	-10.1065	30.7752	-127.66	-0.0146977	16.4026	
